<?xml version="1.0" encoding="UTF-8" standalone="no"?>
<!DOCTYPE svg PUBLIC "-//W3C//DTD SVG 1.1//EN"
 "http://www.w3.org/Graphics/SVG/1.1/DTD/svg11.dtd">
<!-- Generated by graphviz version 2.36.0 (20140111.2315)
 -->
<!-- Title: G Pages: 1 -->
<svg width="1803pt" height="1336pt"
 viewBox="0.00 0.00 1803.20 1335.62" xmlns="http://www.w3.org/2000/svg" xmlns:xlink="http://www.w3.org/1999/xlink">
<g id="graph0" class="graph" transform="scale(1 1) rotate(0) translate(21.6 1314.02)">
<title>G</title>
<polygon fill="#111111" stroke="none" points="-21.6,21.6 -21.6,-1314.02 1781.6,-1314.02 1781.6,21.6 -21.6,21.6"/>
<!-- components/link.js -->
<g id="node1" class="node"><title>components/link.js</title>
<path fill="none" stroke="#ff6c60" d="M124.333,-379.916C124.333,-379.916 7.66667,-379.916 7.66667,-379.916 3.83333,-379.916 0,-376.083 0,-372.25 0,-372.25 0,-364.583 0,-364.583 0,-360.75 3.83333,-356.916 7.66667,-356.916 7.66667,-356.916 124.333,-356.916 124.333,-356.916 128.167,-356.916 132,-360.75 132,-364.583 132,-364.583 132,-372.25 132,-372.25 132,-376.083 128.167,-379.916 124.333,-379.916"/>
<text text-anchor="middle" x="66" y="-364.716" font-family="Arial" font-size="14.00" fill="#ff6c60">components/link.js</text>
</g>
<!-- util/location.js -->
<g id="node2" class="node"><title>util/location.js</title>
<path fill="none" stroke="#ff6c60" d="M261.833,-379.916C261.833,-379.916 176.167,-379.916 176.167,-379.916 172.333,-379.916 168.5,-376.083 168.5,-372.25 168.5,-372.25 168.5,-364.583 168.5,-364.583 168.5,-360.75 172.333,-356.916 176.167,-356.916 176.167,-356.916 261.833,-356.916 261.833,-356.916 265.667,-356.916 269.5,-360.75 269.5,-364.583 269.5,-364.583 269.5,-372.25 269.5,-372.25 269.5,-376.083 265.667,-379.916 261.833,-379.916"/>
<text text-anchor="middle" x="219" y="-364.716" font-family="Arial" font-size="14.00" fill="#ff6c60">util/location.js</text>
</g>
<!-- components/link.js&#45;&gt;util/location.js -->
<g id="edge1" class="edge"><title>components/link.js&#45;&gt;util/location.js</title>
<path fill="none" stroke="#757575" d="M132.353,-368.416C140.966,-368.416 149.758,-368.416 158.271,-368.416"/>
<polygon fill="#757575" stroke="#757575" points="158.485,-371.917 168.485,-368.416 158.485,-364.917 158.485,-371.917"/>
</g>
<!-- util/misc.js -->
<g id="node3" class="node"><title>util/misc.js</title>
<path fill="none" stroke="#cfffac" d="M1506.83,-1037.92C1506.83,-1037.92 1441.17,-1037.92 1441.17,-1037.92 1437.33,-1037.92 1433.5,-1034.08 1433.5,-1030.25 1433.5,-1030.25 1433.5,-1022.58 1433.5,-1022.58 1433.5,-1018.75 1437.33,-1014.92 1441.17,-1014.92 1441.17,-1014.92 1506.83,-1014.92 1506.83,-1014.92 1510.67,-1014.92 1514.5,-1018.75 1514.5,-1022.58 1514.5,-1022.58 1514.5,-1030.25 1514.5,-1030.25 1514.5,-1034.08 1510.67,-1037.92 1506.83,-1037.92"/>
<text text-anchor="middle" x="1474" y="-1022.72" font-family="Arial" font-size="14.00" fill="#cfffac">util/misc.js</text>
</g>
<!-- components/link.js&#45;&gt;util/misc.js -->
<g id="edge2" class="edge"><title>components/link.js&#45;&gt;util/misc.js</title>
<path fill="none" stroke="#757575" d="M67.4916,-379.875C71.2647,-464.329 97.4006,-990.994 168,-1131.42 214.598,-1224.1 233.261,-1292.42 337,-1292.42 337,-1292.42 337,-1292.42 1166,-1292.42 1282.56,-1292.42 1313.51,-1248.77 1396,-1166.42 1430.97,-1131.51 1454.55,-1077.4 1465.67,-1047.71"/>
<polygon fill="#757575" stroke="#757575" points="1469.08,-1048.55 1469.19,-1037.96 1462.5,-1046.17 1469.08,-1048.55"/>
</g>
<!-- util/route.js -->
<g id="node4" class="node"><title>util/route.js</title>
<path fill="none" stroke="#ff6c60" d="M1508.33,-484.916C1508.33,-484.916 1439.67,-484.916 1439.67,-484.916 1435.83,-484.916 1432,-481.083 1432,-477.25 1432,-477.25 1432,-469.583 1432,-469.583 1432,-465.75 1435.83,-461.916 1439.67,-461.916 1439.67,-461.916 1508.33,-461.916 1508.33,-461.916 1512.17,-461.916 1516,-465.75 1516,-469.583 1516,-469.583 1516,-477.25 1516,-477.25 1516,-481.083 1512.17,-484.916 1508.33,-484.916"/>
<text text-anchor="middle" x="1474" y="-469.716" font-family="Arial" font-size="14.00" fill="#ff6c60">util/route.js</text>
</g>
<!-- components/link.js&#45;&gt;util/route.js -->
<g id="edge3" class="edge"><title>components/link.js&#45;&gt;util/route.js</title>
<path fill="none" stroke="#757575" d="M72.1486,-356.843C95.1226,-307.153 193.484,-114.416 337,-114.416 337,-114.416 337,-114.416 802,-114.416 1084.15,-114.416 1190.39,-145.206 1396,-338.416 1430.85,-371.164 1454.35,-423.274 1465.51,-452.241"/>
<polygon fill="#757575" stroke="#757575" points="1462.3,-453.636 1469.07,-461.787 1468.86,-451.194 1462.3,-453.636"/>
</g>
<!-- util/warn.js -->
<g id="node5" class="node"><title>util/warn.js</title>
<path fill="none" stroke="#cfffac" d="M1751.83,-319.916C1751.83,-319.916 1684.17,-319.916 1684.17,-319.916 1680.33,-319.916 1676.5,-316.083 1676.5,-312.25 1676.5,-312.25 1676.5,-304.583 1676.5,-304.583 1676.5,-300.75 1680.33,-296.916 1684.17,-296.916 1684.17,-296.916 1751.83,-296.916 1751.83,-296.916 1755.67,-296.916 1759.5,-300.75 1759.5,-304.583 1759.5,-304.583 1759.5,-312.25 1759.5,-312.25 1759.5,-316.083 1755.67,-319.916 1751.83,-319.916"/>
<text text-anchor="middle" x="1718" y="-304.716" font-family="Arial" font-size="14.00" fill="#cfffac">util/warn.js</text>
</g>
<!-- components/link.js&#45;&gt;util/warn.js -->
<g id="edge4" class="edge"><title>components/link.js&#45;&gt;util/warn.js</title>
<path fill="none" stroke="#757575" d="M69.3211,-356.999C82.6729,-294.885 155.539,-0.416479 337,-0.416479 337,-0.416479 337,-0.416479 1475,-0.416479 1551.25,-0.416479 1585.83,6.24718 1640,-47.4165 1707.57,-114.353 1716.48,-237.421 1717.21,-286.941"/>
<polygon fill="#757575" stroke="#757575" points="1713.71,-287.129 1717.25,-297.113 1720.71,-287.098 1713.71,-287.129"/>
</g>
<!-- util/location.js&#45;&gt;util/misc.js -->
<g id="edge58" class="edge"><title>util/location.js&#45;&gt;util/misc.js</title>
<path fill="none" stroke="#757575" d="M220.754,-379.763C227.739,-480.391 285.084,-1216.42 468,-1216.42 468,-1216.42 468,-1216.42 1166,-1216.42 1294.9,-1216.42 1414.82,-1093.8 1457,-1045.57"/>
<polygon fill="#757575" stroke="#757575" points="1459.88,-1047.6 1463.75,-1037.73 1454.57,-1043.03 1459.88,-1047.6"/>
</g>
<!-- util/location.js&#45;&gt;util/warn.js -->
<g id="edge62" class="edge"><title>util/location.js&#45;&gt;util/warn.js</title>
<path fill="none" stroke="#757575" d="M220.593,-356.962C223.231,-317.437 237.057,-185.048 306,-109.416 358.958,-51.3202 389.389,-38.4165 468,-38.4165 468,-38.4165 468,-38.4165 1475,-38.4165 1557.49,-38.4165 1584.09,-62.7638 1640,-123.416 1684.45,-171.632 1705.19,-249.146 1713.03,-286.67"/>
<polygon fill="#757575" stroke="#757575" points="1709.69,-287.824 1715.07,-296.955 1716.56,-286.466 1709.69,-287.824"/>
</g>
<!-- index.js -->
<g id="node9" class="node"><title>index.js</title>
<path fill="none" stroke="#ff6c60" d="M362.333,-654.916C362.333,-654.916 313.667,-654.916 313.667,-654.916 309.833,-654.916 306,-651.083 306,-647.25 306,-647.25 306,-639.583 306,-639.583 306,-635.75 309.833,-631.916 313.667,-631.916 313.667,-631.916 362.333,-631.916 362.333,-631.916 366.167,-631.916 370,-635.75 370,-639.583 370,-639.583 370,-647.25 370,-647.25 370,-651.083 366.167,-654.916 362.333,-654.916"/>
<text text-anchor="middle" x="338" y="-639.716" font-family="Arial" font-size="14.00" fill="#ff6c60">index.js</text>
</g>
<!-- util/location.js&#45;&gt;index.js -->
<g id="edge57" class="edge"><title>util/location.js&#45;&gt;index.js</title>
<path fill="none" stroke="#757575" d="M226.29,-379.939C246.267,-422.323 308.21,-567.837 329.626,-622.587"/>
<polygon fill="#757575" stroke="#757575" points="326.385,-623.911 333.24,-631.989 332.919,-621.399 326.385,-623.911"/>
</g>
<!-- util/params.js -->
<g id="node10" class="node"><title>util/params.js</title>
<path fill="none" stroke="#c6c5fe" d="M678.833,-165.916C678.833,-165.916 595.167,-165.916 595.167,-165.916 591.333,-165.916 587.5,-162.083 587.5,-158.25 587.5,-158.25 587.5,-150.583 587.5,-150.583 587.5,-146.75 591.333,-142.916 595.167,-142.916 595.167,-142.916 678.833,-142.916 678.833,-142.916 682.667,-142.916 686.5,-146.75 686.5,-150.583 686.5,-150.583 686.5,-158.25 686.5,-158.25 686.5,-162.083 682.667,-165.916 678.833,-165.916"/>
<text text-anchor="middle" x="637" y="-150.716" font-family="Arial" font-size="14.00" fill="#c6c5fe">util/params.js</text>
</g>
<!-- util/location.js&#45;&gt;util/params.js -->
<g id="edge59" class="edge"><title>util/location.js&#45;&gt;util/params.js</title>
<path fill="none" stroke="#757575" d="M238.795,-357.129C290.3,-326.449 438.498,-239.849 568,-180.416 576.436,-176.545 585.628,-172.755 594.447,-169.319"/>
<polygon fill="#757575" stroke="#757575" points="595.724,-172.578 603.819,-165.741 593.228,-166.038 595.724,-172.578"/>
</g>
<!-- util/path.js -->
<g id="node11" class="node"><title>util/path.js</title>
<path fill="none" stroke="#cfffac" d="M833.333,-417.916C833.333,-417.916 768.667,-417.916 768.667,-417.916 764.833,-417.916 761,-414.083 761,-410.25 761,-410.25 761,-402.583 761,-402.583 761,-398.75 764.833,-394.916 768.667,-394.916 768.667,-394.916 833.333,-394.916 833.333,-394.916 837.167,-394.916 841,-398.75 841,-402.583 841,-402.583 841,-410.25 841,-410.25 841,-414.083 837.167,-417.916 833.333,-417.916"/>
<text text-anchor="middle" x="801" y="-402.716" font-family="Arial" font-size="14.00" fill="#cfffac">util/path.js</text>
</g>
<!-- util/location.js&#45;&gt;util/path.js -->
<g id="edge60" class="edge"><title>util/location.js&#45;&gt;util/path.js</title>
<path fill="none" stroke="#757575" d="M269.701,-371.673C379.472,-378.865 641.506,-396.032 750.806,-403.193"/>
<polygon fill="#757575" stroke="#757575" points="750.689,-406.693 760.897,-403.855 751.147,-399.708 750.689,-406.693"/>
</g>
<!-- util/query.js -->
<g id="node12" class="node"><title>util/query.js</title>
<path fill="none" stroke="#c6c5fe" d="M1631.83,-262.916C1631.83,-262.916 1560.17,-262.916 1560.17,-262.916 1556.33,-262.916 1552.5,-259.083 1552.5,-255.25 1552.5,-255.25 1552.5,-247.583 1552.5,-247.583 1552.5,-243.75 1556.33,-239.916 1560.17,-239.916 1560.17,-239.916 1631.83,-239.916 1631.83,-239.916 1635.67,-239.916 1639.5,-243.75 1639.5,-247.583 1639.5,-247.583 1639.5,-255.25 1639.5,-255.25 1639.5,-259.083 1635.67,-262.916 1631.83,-262.916"/>
<text text-anchor="middle" x="1596" y="-247.716" font-family="Arial" font-size="14.00" fill="#c6c5fe">util/query.js</text>
</g>
<!-- util/location.js&#45;&gt;util/query.js -->
<g id="edge61" class="edge"><title>util/location.js&#45;&gt;util/query.js</title>
<path fill="none" stroke="#757575" d="M223.335,-356.97C239.836,-302.983 318.018,-76.4165 468,-76.4165 468,-76.4165 468,-76.4165 1327,-76.4165 1439.76,-76.4165 1542.15,-186.372 1579.76,-231.967"/>
<polygon fill="#757575" stroke="#757575" points="1577.19,-234.364 1586.21,-239.934 1582.64,-229.96 1577.19,-234.364"/>
</g>
<!-- util/route.js&#45;&gt;index.js -->
<g id="edge72" class="edge"><title>util/route.js&#45;&gt;index.js</title>
<path fill="none" stroke="#757575" d="M1431.79,-479.366C1372.86,-482.416 1261.14,-482.416 1166,-482.416 636,-482.416 636,-482.416 636,-482.416 529.018,-482.416 491.961,-489.731 406,-553.416 381.095,-571.867 362.446,-602.484 351.229,-623.005"/>
<polygon fill="#757575" stroke="#757575" points="348.098,-621.439 346.464,-631.907 354.269,-624.743 348.098,-621.439"/>
</g>
<!-- util/route.js&#45;&gt;util/query.js -->
<g id="edge73" class="edge"><title>util/route.js&#45;&gt;util/query.js</title>
<path fill="none" stroke="#757575" d="M1481.12,-462.102C1500.29,-426.623 1559.44,-317.211 1584.06,-271.651"/>
<polygon fill="#757575" stroke="#757575" points="1587.22,-273.169 1588.9,-262.708 1581.06,-269.841 1587.22,-273.169"/>
</g>
<!-- components/view.js -->
<g id="node6" class="node"><title>components/view.js</title>
<path fill="none" stroke="#c6c5fe" d="M1387.83,-997.916C1387.83,-997.916 1264.17,-997.916 1264.17,-997.916 1260.33,-997.916 1256.5,-994.083 1256.5,-990.25 1256.5,-990.25 1256.5,-982.583 1256.5,-982.583 1256.5,-978.75 1260.33,-974.916 1264.17,-974.916 1264.17,-974.916 1387.83,-974.916 1387.83,-974.916 1391.67,-974.916 1395.5,-978.75 1395.5,-982.583 1395.5,-982.583 1395.5,-990.25 1395.5,-990.25 1395.5,-994.083 1391.67,-997.916 1387.83,-997.916"/>
<text text-anchor="middle" x="1326" y="-982.716" font-family="Arial" font-size="14.00" fill="#c6c5fe">components/view.js</text>
</g>
<!-- components/view.js&#45;&gt;util/misc.js -->
<g id="edge5" class="edge"><title>components/view.js&#45;&gt;util/misc.js</title>
<path fill="none" stroke="#757575" d="M1368.45,-997.772C1385.66,-1002.49 1405.77,-1008 1423.74,-1012.92"/>
<polygon fill="#757575" stroke="#757575" points="1422.89,-1016.32 1433.46,-1015.58 1424.74,-1009.57 1422.89,-1016.32"/>
</g>
<!-- components/view.js&#45;&gt;util/route.js -->
<g id="edge6" class="edge"><title>components/view.js&#45;&gt;util/route.js</title>
<path fill="none" stroke="#757575" d="M1333.72,-974.876C1347.39,-950.952 1378.58,-893.885 1396,-842.416 1439.36,-714.272 1462.9,-552.474 1470.36,-494.929"/>
<polygon fill="#757575" stroke="#757575" points="1473.85,-495.211 1471.64,-484.851 1466.91,-494.331 1473.85,-495.211"/>
</g>
<!-- components/view.js&#45;&gt;util/warn.js -->
<g id="edge7" class="edge"><title>components/view.js&#45;&gt;util/warn.js</title>
<path fill="none" stroke="#757575" d="M1395.8,-990.406C1477.33,-993.53 1606.37,-992.901 1640,-960.416 1686.52,-915.484 1711.08,-437.723 1716.05,-329.937"/>
<polygon fill="#757575" stroke="#757575" points="1719.55,-330.068 1716.5,-319.92 1712.55,-329.751 1719.55,-330.068"/>
</g>
<!-- create&#45;matcher.js -->
<g id="node7" class="node"><title>create&#45;matcher.js</title>
<path fill="none" stroke="#ff6c60" d="M523.833,-321.916C523.833,-321.916 414.167,-321.916 414.167,-321.916 410.333,-321.916 406.5,-318.083 406.5,-314.25 406.5,-314.25 406.5,-306.583 406.5,-306.583 406.5,-302.75 410.333,-298.916 414.167,-298.916 414.167,-298.916 523.833,-298.916 523.833,-298.916 527.667,-298.916 531.5,-302.75 531.5,-306.583 531.5,-306.583 531.5,-314.25 531.5,-314.25 531.5,-318.083 527.667,-321.916 523.833,-321.916"/>
<text text-anchor="middle" x="469" y="-306.716" font-family="Arial" font-size="14.00" fill="#ff6c60">create&#45;matcher.js</text>
</g>
<!-- create&#45;matcher.js&#45;&gt;util/location.js -->
<g id="edge10" class="edge"><title>create&#45;matcher.js&#45;&gt;util/location.js</title>
<path fill="none" stroke="#757575" d="M419.6,-321.736C379.006,-331.23 320.931,-344.812 277.882,-354.88"/>
<polygon fill="#757575" stroke="#757575" points="277.051,-351.479 268.111,-357.165 278.645,-358.295 277.051,-351.479"/>
</g>
<!-- create&#45;matcher.js&#45;&gt;util/route.js -->
<g id="edge14" class="edge"><title>create&#45;matcher.js&#45;&gt;util/route.js</title>
<path fill="none" stroke="#757575" d="M516.633,-299.135C532.815,-295.565 551.13,-291.904 568,-289.416 670.35,-274.324 696.544,-270.416 800,-270.416 800,-270.416 800,-270.416 986,-270.416 1177.98,-270.416 1382.04,-406.485 1449.72,-455.82"/>
<polygon fill="#757575" stroke="#757575" points="1447.87,-458.805 1457.99,-461.921 1452.02,-453.17 1447.87,-458.805"/>
</g>
<!-- create&#45;matcher.js&#45;&gt;util/warn.js -->
<g id="edge15" class="edge"><title>create&#45;matcher.js&#45;&gt;util/warn.js</title>
<path fill="none" stroke="#757575" d="M480.527,-299.109C497.268,-281.895 531.785,-249.427 568,-233.416 663.63,-191.139 695.442,-194.416 800,-194.416 800,-194.416 800,-194.416 1475,-194.416 1550.06,-194.416 1574.25,-194.212 1640,-230.416 1666.21,-244.851 1689.28,-270.987 1703.17,-289"/>
<polygon fill="#757575" stroke="#757575" points="1700.44,-291.189 1709.23,-297.104 1706.05,-286.998 1700.44,-291.189"/>
</g>
<!-- create&#45;route&#45;map.js -->
<g id="node8" class="node"><title>create&#45;route&#45;map.js</title>
<path fill="none" stroke="#c6c5fe" d="M698.333,-321.916C698.333,-321.916 575.667,-321.916 575.667,-321.916 571.833,-321.916 568,-318.083 568,-314.25 568,-314.25 568,-306.583 568,-306.583 568,-302.75 571.833,-298.916 575.667,-298.916 575.667,-298.916 698.333,-298.916 698.333,-298.916 702.167,-298.916 706,-302.75 706,-306.583 706,-306.583 706,-314.25 706,-314.25 706,-318.083 702.167,-321.916 698.333,-321.916"/>
<text text-anchor="middle" x="637" y="-306.716" font-family="Arial" font-size="14.00" fill="#c6c5fe">create&#45;route&#45;map.js</text>
</g>
<!-- create&#45;matcher.js&#45;&gt;create&#45;route&#45;map.js -->
<g id="edge8" class="edge"><title>create&#45;matcher.js&#45;&gt;create&#45;route&#45;map.js</title>
<path fill="none" stroke="#757575" d="M531.812,-310.416C540.227,-310.416 548.952,-310.416 557.611,-310.416"/>
<polygon fill="#757575" stroke="#757575" points="557.722,-313.917 567.722,-310.416 557.722,-306.917 557.722,-313.917"/>
</g>
<!-- create&#45;matcher.js&#45;&gt;index.js -->
<g id="edge9" class="edge"><title>create&#45;matcher.js&#45;&gt;index.js</title>
<path fill="none" stroke="#757575" d="M462.966,-321.881C451.425,-342.152 422.765,-383.286 406,-421.416 374.902,-492.147 353.756,-581.312 344.422,-621.912"/>
<polygon fill="#757575" stroke="#757575" points="340.978,-621.274 342.154,-631.803 347.801,-622.839 340.978,-621.274"/>
</g>
<!-- create&#45;matcher.js&#45;&gt;util/params.js -->
<g id="edge11" class="edge"><title>create&#45;matcher.js&#45;&gt;util/params.js</title>
<path fill="none" stroke="#757575" d="M478.399,-299.104C501.598,-267.879 565.05,-182.636 568,-180.416 573.429,-176.332 579.575,-172.817 585.899,-169.811"/>
<polygon fill="#757575" stroke="#757575" points="587.446,-172.956 595.228,-165.766 584.661,-166.533 587.446,-172.956"/>
</g>
<!-- create&#45;matcher.js&#45;&gt;util/path.js -->
<g id="edge12" class="edge"><title>create&#45;matcher.js&#45;&gt;util/path.js</title>
<path fill="none" stroke="#757575" d="M515.046,-321.727C562.716,-333.908 640.025,-354.263 706,-374.416 723.34,-379.713 742.297,-386.059 758.617,-391.698"/>
<polygon fill="#757575" stroke="#757575" points="757.805,-395.121 768.4,-395.101 760.105,-388.509 757.805,-395.121"/>
</g>
<!-- create&#45;matcher.js&#45;&gt;util/query.js -->
<g id="edge13" class="edge"><title>create&#45;matcher.js&#45;&gt;util/query.js</title>
<path fill="none" stroke="#757575" d="M492.806,-299.043C512.319,-289.762 541.392,-276.987 568,-269.416 668.428,-240.843 695.586,-232.416 800,-232.416 800,-232.416 800,-232.416 1327,-232.416 1401.93,-232.416 1488.36,-239.898 1542.34,-245.472"/>
<polygon fill="#757575" stroke="#757575" points="1542.05,-248.961 1552.36,-246.524 1542.78,-241.999 1542.05,-248.961"/>
</g>
<!-- create&#45;route&#45;map.js&#45;&gt;util/warn.js -->
<g id="edge17" class="edge"><title>create&#45;route&#45;map.js&#45;&gt;util/warn.js</title>
<path fill="none" stroke="#757575" d="M706.276,-309.789C776.065,-309.203 887.587,-308.416 984,-308.416 984,-308.416 984,-308.416 1475,-308.416 1541.09,-308.416 1617.34,-308.416 1666.3,-308.416"/>
<polygon fill="#757575" stroke="#757575" points="1666.32,-311.917 1676.32,-308.416 1666.32,-304.917 1666.32,-311.917"/>
</g>
<!-- create&#45;route&#45;map.js&#45;&gt;util/path.js -->
<g id="edge16" class="edge"><title>create&#45;route&#45;map.js&#45;&gt;util/path.js</title>
<path fill="none" stroke="#757575" d="M673.07,-321.729C683.909,-325.774 695.7,-330.754 706,-336.416 733.059,-351.292 761.07,-373.13 779.395,-388.449"/>
<polygon fill="#757575" stroke="#757575" points="777.205,-391.18 787.095,-394.979 781.733,-385.842 777.205,-391.18"/>
</g>
<!-- index.js&#45;&gt;util/location.js -->
<g id="edge49" class="edge"><title>index.js&#45;&gt;util/location.js</title>
<path fill="none" stroke="#757575" d="M330.808,-632.102C310.938,-589.992 248.838,-444.115 227.38,-389.263"/>
<polygon fill="#757575" stroke="#757575" points="230.615,-387.922 223.76,-379.844 224.081,-390.434 230.615,-387.922"/>
</g>
<!-- index.js&#45;&gt;util/route.js -->
<g id="edge52" class="edge"><title>index.js&#45;&gt;util/route.js</title>
<path fill="none" stroke="#757575" d="M341.738,-632.164C349.197,-609.463 371.648,-560.866 406,-535.416 491.961,-471.731 529.018,-464.416 636,-464.416 636,-464.416 636,-464.416 1166,-464.416 1255.94,-464.416 1360.69,-464.416 1421.66,-466.994"/>
<polygon fill="#757575" stroke="#757575" points="1421.63,-470.496 1431.79,-467.467 1421.96,-463.504 1421.63,-470.496"/>
</g>
<!-- index.js&#45;&gt;util/warn.js -->
<g id="edge54" class="edge"><title>index.js&#45;&gt;util/warn.js</title>
<path fill="none" stroke="#757575" d="M358.219,-632.166C371.242,-625.145 389.094,-616.662 406,-612.416 802.829,-512.769 915.851,-558.416 1325,-558.416 1325,-558.416 1325,-558.416 1475,-558.416 1602.08,-558.416 1683.72,-389.596 1708.79,-329.414"/>
<polygon fill="#757575" stroke="#757575" points="1712.17,-330.39 1712.69,-319.808 1705.68,-327.756 1712.17,-330.39"/>
</g>
<!-- index.js&#45;&gt;create&#45;matcher.js -->
<g id="edge42" class="edge"><title>index.js&#45;&gt;create&#45;matcher.js</title>
<path fill="none" stroke="#757575" d="M340.569,-631.724C346.537,-595.667 369.362,-486.748 406,-403.416 417.809,-376.558 435.519,-348.211 448.991,-329.758"/>
<polygon fill="#757575" stroke="#757575" points="451.786,-331.865 455.033,-321.78 446.206,-327.639 451.786,-331.865"/>
</g>
<!-- index.js&#45;&gt;util/path.js -->
<g id="edge50" class="edge"><title>index.js&#45;&gt;util/path.js</title>
<path fill="none" stroke="#757575" d="M339.062,-631.952C339.926,-597.948 347.523,-497.121 406,-450.416 458.096,-408.808 656.995,-404.977 750.663,-405.575"/>
<polygon fill="#757575" stroke="#757575" points="750.711,-409.075 760.74,-405.659 750.77,-402.076 750.711,-409.075"/>
</g>
<!-- history/abstract.js -->
<g id="node13" class="node"><title>history/abstract.js</title>
<path fill="none" stroke="#ff6c60" d="M523.833,-935.916C523.833,-935.916 414.167,-935.916 414.167,-935.916 410.333,-935.916 406.5,-932.083 406.5,-928.25 406.5,-928.25 406.5,-920.583 406.5,-920.583 406.5,-916.75 410.333,-912.916 414.167,-912.916 414.167,-912.916 523.833,-912.916 523.833,-912.916 527.667,-912.916 531.5,-916.75 531.5,-920.583 531.5,-920.583 531.5,-928.25 531.5,-928.25 531.5,-932.083 527.667,-935.916 523.833,-935.916"/>
<text text-anchor="middle" x="469" y="-920.716" font-family="Arial" font-size="14.00" fill="#ff6c60">history/abstract.js</text>
</g>
<!-- index.js&#45;&gt;history/abstract.js -->
<g id="edge43" class="edge"><title>index.js&#45;&gt;history/abstract.js</title>
<path fill="none" stroke="#757575" d="M338.599,-654.917C338.328,-693.531 343.406,-817.373 406,-889.416 414.171,-898.821 426.306,-904.903 437.679,-909.45"/>
<polygon fill="#757575" stroke="#757575" points="436.767,-912.847 447.359,-913.097 439.235,-906.296 436.767,-912.847"/>
</g>
<!-- util/errors.js -->
<g id="node15" class="node"><title>util/errors.js</title>
<path fill="none" stroke="#cfffac" d="M1201.83,-1113.92C1201.83,-1113.92 1128.17,-1113.92 1128.17,-1113.92 1124.33,-1113.92 1120.5,-1110.08 1120.5,-1106.25 1120.5,-1106.25 1120.5,-1098.58 1120.5,-1098.58 1120.5,-1094.75 1124.33,-1090.92 1128.17,-1090.92 1128.17,-1090.92 1201.83,-1090.92 1201.83,-1090.92 1205.67,-1090.92 1209.5,-1094.75 1209.5,-1098.58 1209.5,-1098.58 1209.5,-1106.25 1209.5,-1106.25 1209.5,-1110.08 1205.67,-1113.92 1201.83,-1113.92"/>
<text text-anchor="middle" x="1165" y="-1098.72" font-family="Arial" font-size="14.00" fill="#cfffac">util/errors.js</text>
</g>
<!-- index.js&#45;&gt;util/errors.js -->
<g id="edge48" class="edge"><title>index.js&#45;&gt;util/errors.js</title>
<path fill="none" stroke="#757575" d="M340.068,-654.726C345.294,-708.378 369.405,-937.129 406,-997.416 473.497,-1108.61 505.92,-1178.42 636,-1178.42 636,-1178.42 636,-1178.42 802,-1178.42 920.193,-1178.42 1055.55,-1139.13 1122.3,-1117.05"/>
<polygon fill="#757575" stroke="#757575" points="1123.65,-1120.29 1132.02,-1113.79 1121.43,-1113.65 1123.65,-1120.29"/>
</g>
<!-- install.js -->
<g id="node16" class="node"><title>install.js</title>
<path fill="none" stroke="#ff6c60" d="M1190.33,-999.916C1190.33,-999.916 1139.67,-999.916 1139.67,-999.916 1135.83,-999.916 1132,-996.083 1132,-992.25 1132,-992.25 1132,-984.583 1132,-984.583 1132,-980.75 1135.83,-976.916 1139.67,-976.916 1139.67,-976.916 1190.33,-976.916 1190.33,-976.916 1194.17,-976.916 1198,-980.75 1198,-984.583 1198,-984.583 1198,-992.25 1198,-992.25 1198,-996.083 1194.17,-999.916 1190.33,-999.916"/>
<text text-anchor="middle" x="1165" y="-984.716" font-family="Arial" font-size="14.00" fill="#ff6c60">install.js</text>
</g>
<!-- index.js&#45;&gt;install.js -->
<g id="edge46" class="edge"><title>index.js&#45;&gt;install.js</title>
<path fill="none" stroke="#757575" d="M340.083,-654.902C344.97,-704.484 366.475,-899.684 406,-944.416 477.859,-1025.74 527.475,-1026.42 636,-1026.42 636,-1026.42 636,-1026.42 802,-1026.42 918.068,-1026.42 1053.93,-1006.86 1121.44,-995.802"/>
<polygon fill="#757575" stroke="#757575" points="1122.38,-999.194 1131.67,-994.105 1121.23,-992.288 1122.38,-999.194"/>
</g>
<!-- util/dom.js -->
<g id="node18" class="node"><title>util/dom.js</title>
<path fill="none" stroke="#cfffac" d="M1358.33,-762.916C1358.33,-762.916 1293.67,-762.916 1293.67,-762.916 1289.83,-762.916 1286,-759.083 1286,-755.25 1286,-755.25 1286,-747.583 1286,-747.583 1286,-743.75 1289.83,-739.916 1293.67,-739.916 1293.67,-739.916 1358.33,-739.916 1358.33,-739.916 1362.17,-739.916 1366,-743.75 1366,-747.583 1366,-747.583 1366,-755.25 1366,-755.25 1366,-759.083 1362.17,-762.916 1358.33,-762.916"/>
<text text-anchor="middle" x="1326" y="-747.716" font-family="Arial" font-size="14.00" fill="#cfffac">util/dom.js</text>
</g>
<!-- index.js&#45;&gt;util/dom.js -->
<g id="edge47" class="edge"><title>index.js&#45;&gt;util/dom.js</title>
<path fill="none" stroke="#757575" d="M342.32,-654.685C349.671,-677.482 369.617,-728.981 406,-753.416 466.535,-794.074 495.309,-773.62 568,-779.416 706.129,-790.43 1129.78,-764.34 1275.31,-754.767"/>
<polygon fill="#757575" stroke="#757575" points="1275.95,-758.232 1285.7,-754.081 1275.49,-751.248 1275.95,-758.232"/>
</g>
<!-- util/scroll.js -->
<g id="node20" class="node"><title>util/scroll.js</title>
<path fill="none" stroke="#ff6c60" d="M1019.83,-723.916C1019.83,-723.916 950.167,-723.916 950.167,-723.916 946.333,-723.916 942.5,-720.083 942.5,-716.25 942.5,-716.25 942.5,-708.583 942.5,-708.583 942.5,-704.75 946.333,-700.916 950.167,-700.916 950.167,-700.916 1019.83,-700.916 1019.83,-700.916 1023.67,-700.916 1027.5,-704.75 1027.5,-708.583 1027.5,-708.583 1027.5,-716.25 1027.5,-716.25 1027.5,-720.083 1023.67,-723.916 1019.83,-723.916"/>
<text text-anchor="middle" x="985" y="-708.716" font-family="Arial" font-size="14.00" fill="#ff6c60">util/scroll.js</text>
</g>
<!-- index.js&#45;&gt;util/scroll.js -->
<g id="edge53" class="edge"><title>index.js&#45;&gt;util/scroll.js</title>
<path fill="none" stroke="#757575" d="M350.526,-654.775C362.209,-669.374 381.963,-692.956 406,-703.416 585.652,-781.598 827.486,-740.523 932.148,-720.618"/>
<polygon fill="#757575" stroke="#757575" points="932.977,-724.023 942.141,-718.705 931.661,-717.148 932.977,-724.023"/>
</g>
<!-- history/hash.js -->
<g id="node21" class="node"><title>history/hash.js</title>
<path fill="none" stroke="#ff6c60" d="M514.333,-703.916C514.333,-703.916 423.667,-703.916 423.667,-703.916 419.833,-703.916 416,-700.083 416,-696.25 416,-696.25 416,-688.583 416,-688.583 416,-684.75 419.833,-680.916 423.667,-680.916 423.667,-680.916 514.333,-680.916 514.333,-680.916 518.167,-680.916 522,-684.75 522,-688.583 522,-688.583 522,-696.25 522,-696.25 522,-700.083 518.167,-703.916 514.333,-703.916"/>
<text text-anchor="middle" x="469" y="-688.716" font-family="Arial" font-size="14.00" fill="#ff6c60">history/hash.js</text>
</g>
<!-- index.js&#45;&gt;history/hash.js -->
<g id="edge44" class="edge"><title>index.js&#45;&gt;history/hash.js</title>
<path fill="none" stroke="#757575" d="M370.227,-649.4C392.114,-656.453 421.038,-667.546 441.739,-676.882"/>
<polygon fill="#757575" stroke="#757575" points="440.354,-680.097 450.895,-681.162 443.318,-673.756 440.354,-680.097"/>
</g>
<!-- history/html5.js -->
<g id="node22" class="node"><title>history/html5.js</title>
<path fill="none" stroke="#ff6c60" d="M684.333,-647.916C684.333,-647.916 589.667,-647.916 589.667,-647.916 585.833,-647.916 582,-644.083 582,-640.25 582,-640.25 582,-632.583 582,-632.583 582,-628.75 585.833,-624.916 589.667,-624.916 589.667,-624.916 684.333,-624.916 684.333,-624.916 688.167,-624.916 692,-628.75 692,-632.583 692,-632.583 692,-640.25 692,-640.25 692,-644.083 688.167,-647.916 684.333,-647.916"/>
<text text-anchor="middle" x="637" y="-632.716" font-family="Arial" font-size="14.00" fill="#ff6c60">history/html5.js</text>
</g>
<!-- index.js&#45;&gt;history/html5.js -->
<g id="edge45" class="edge"><title>index.js&#45;&gt;history/html5.js</title>
<path fill="none" stroke="#757575" d="M370.223,-638.342C417.837,-634.536 509.615,-631.93 571.839,-632.258"/>
<polygon fill="#757575" stroke="#757575" points="571.915,-635.759 581.943,-632.341 571.972,-628.759 571.915,-635.759"/>
</g>
<!-- util/push&#45;state.js -->
<g id="node23" class="node"><title>util/push&#45;state.js</title>
<path fill="none" stroke="#c6c5fe" d="M852.333,-647.916C852.333,-647.916 749.667,-647.916 749.667,-647.916 745.833,-647.916 742,-644.083 742,-640.25 742,-640.25 742,-632.583 742,-632.583 742,-628.75 745.833,-624.916 749.667,-624.916 749.667,-624.916 852.333,-624.916 852.333,-624.916 856.167,-624.916 860,-628.75 860,-632.583 860,-632.583 860,-640.25 860,-640.25 860,-644.083 856.167,-647.916 852.333,-647.916"/>
<text text-anchor="middle" x="801" y="-632.716" font-family="Arial" font-size="14.00" fill="#c6c5fe">util/push&#45;state.js</text>
</g>
<!-- index.js&#45;&gt;util/push&#45;state.js -->
<g id="edge51" class="edge"><title>index.js&#45;&gt;util/push&#45;state.js</title>
<path fill="none" stroke="#757575" d="M370.486,-637.077C434.037,-625.15 582.146,-601.75 706,-615.416 720.043,-616.966 735.056,-619.78 748.869,-622.856"/>
<polygon fill="#757575" stroke="#757575" points="748.152,-626.282 758.684,-625.127 749.73,-619.462 748.152,-626.282"/>
</g>
<!-- util/params.js&#45;&gt;util/warn.js -->
<g id="edge63" class="edge"><title>util/params.js&#45;&gt;util/warn.js</title>
<path fill="none" stroke="#757575" d="M686.682,-150.11C799.046,-140.554 1085.24,-118.416 1325,-118.416 1325,-118.416 1325,-118.416 1475,-118.416 1553.34,-118.416 1579.8,-130.289 1640,-180.416 1675.17,-209.698 1698.44,-259.427 1709.5,-287.504"/>
<polygon fill="#757575" stroke="#757575" points="1706.33,-289.006 1713.15,-297.116 1712.88,-286.525 1706.33,-289.006"/>
</g>
<!-- util/query.js&#45;&gt;util/warn.js -->
<g id="edge68" class="edge"><title>util/query.js&#45;&gt;util/warn.js</title>
<path fill="none" stroke="#757575" d="M1620.71,-262.678C1638.75,-271.248 1663.81,-283.151 1683.84,-292.665"/>
<polygon fill="#757575" stroke="#757575" points="1682.4,-295.854 1692.93,-296.983 1685.4,-289.531 1682.4,-295.854"/>
</g>
<!-- history/abstract.js&#45;&gt;index.js -->
<g id="edge19" class="edge"><title>history/abstract.js&#45;&gt;index.js</title>
<path fill="none" stroke="#757575" d="M411.787,-913.038C409.706,-911.315 407.761,-909.443 406,-907.416 344.169,-836.251 338.461,-714.544 338.592,-664.995"/>
<polygon fill="#757575" stroke="#757575" points="342.094,-664.825 338.705,-654.787 335.094,-664.748 342.094,-664.825"/>
</g>
<!-- history/base.js -->
<g id="node14" class="node"><title>history/base.js</title>
<path fill="none" stroke="#ff6c60" d="M846.333,-887.916C846.333,-887.916 755.667,-887.916 755.667,-887.916 751.833,-887.916 748,-884.083 748,-880.25 748,-880.25 748,-872.583 748,-872.583 748,-868.75 751.833,-864.916 755.667,-864.916 755.667,-864.916 846.333,-864.916 846.333,-864.916 850.167,-864.916 854,-868.75 854,-872.583 854,-872.583 854,-880.25 854,-880.25 854,-884.083 850.167,-887.916 846.333,-887.916"/>
<text text-anchor="middle" x="801" y="-872.716" font-family="Arial" font-size="14.00" fill="#ff6c60">history/base.js</text>
</g>
<!-- history/abstract.js&#45;&gt;history/base.js -->
<g id="edge18" class="edge"><title>history/abstract.js&#45;&gt;history/base.js</title>
<path fill="none" stroke="#757575" d="M531.9,-919.645C579.67,-915.469 647.294,-908.483 706,-898.416 719.296,-896.137 733.522,-893.116 746.78,-890.045"/>
<polygon fill="#757575" stroke="#757575" points="747.773,-893.407 756.699,-887.699 746.162,-886.595 747.773,-893.407"/>
</g>
<!-- history/abstract.js&#45;&gt;util/errors.js -->
<g id="edge20" class="edge"><title>history/abstract.js&#45;&gt;util/errors.js</title>
<path fill="none" stroke="#757575" d="M503.08,-935.686C574.273,-959.644 747.599,-1016.39 896,-1052.42 969.457,-1070.25 1055.57,-1085.29 1109.95,-1094.09"/>
<polygon fill="#757575" stroke="#757575" points="1109.63,-1097.58 1120.06,-1095.71 1110.74,-1090.67 1109.63,-1097.58"/>
</g>
<!-- history/base.js&#45;&gt;util/route.js -->
<g id="edge27" class="edge"><title>history/base.js&#45;&gt;util/route.js</title>
<path fill="none" stroke="#757575" d="M834.305,-865.149C852.291,-859.206 875.19,-852.18 896,-847.416 1115.11,-797.258 1229.16,-922.046 1396,-771.416 1437.73,-733.745 1462.88,-556.696 1470.51,-494.824"/>
<polygon fill="#757575" stroke="#757575" points="1474.01,-495.017 1471.74,-484.671 1467.07,-494.181 1474.01,-495.017"/>
</g>
<!-- history/base.js&#45;&gt;util/warn.js -->
<g id="edge29" class="edge"><title>history/base.js&#45;&gt;util/warn.js</title>
<path fill="none" stroke="#757575" d="M854.027,-883.919C924.232,-893.377 1053.27,-908.416 1164,-908.416 1164,-908.416 1164,-908.416 1475,-908.416 1602.47,-908.416 1694.13,-436.788 1713.29,-329.816"/>
<polygon fill="#757575" stroke="#757575" points="1716.75,-330.323 1715.05,-319.867 1709.86,-329.104 1716.75,-330.323"/>
</g>
<!-- history/base.js&#45;&gt;index.js -->
<g id="edge21" class="edge"><title>history/base.js&#45;&gt;index.js</title>
<path fill="none" stroke="#757575" d="M747.914,-884.788C665.79,-894.916 505.36,-901.853 406,-822.416 356.699,-783.002 343.672,-703.33 340.232,-664.99"/>
<polygon fill="#757575" stroke="#757575" points="343.715,-664.629 339.468,-654.922 336.735,-665.159 343.715,-664.629"/>
</g>
<!-- history/base.js&#45;&gt;util/errors.js -->
<g id="edge25" class="edge"><title>history/base.js&#45;&gt;util/errors.js</title>
<path fill="none" stroke="#757575" d="M807.989,-887.736C820.988,-911.301 854.025,-966.043 896,-997.416 961.512,-1046.38 1052.8,-1075.66 1110.13,-1090.4"/>
<polygon fill="#757575" stroke="#757575" points="1109.52,-1093.86 1120.08,-1092.9 1111.23,-1087.07 1109.52,-1093.86"/>
</g>
<!-- history/base.js&#45;&gt;install.js -->
<g id="edge22" class="edge"><title>history/base.js&#45;&gt;install.js</title>
<path fill="none" stroke="#757575" d="M809.416,-887.723C823.493,-908.081 856.257,-950.45 896,-968.416 969.89,-1001.82 1066.98,-999.086 1121.7,-993.886"/>
<polygon fill="#757575" stroke="#757575" points="1122.15,-997.359 1131.74,-992.859 1121.44,-990.396 1122.15,-997.359"/>
</g>
<!-- util/async.js -->
<g id="node17" class="node"><title>util/async.js</title>
<path fill="none" stroke="#cfffac" d="M1021.83,-879.916C1021.83,-879.916 948.167,-879.916 948.167,-879.916 944.333,-879.916 940.5,-876.083 940.5,-872.25 940.5,-872.25 940.5,-864.583 940.5,-864.583 940.5,-860.75 944.333,-856.916 948.167,-856.916 948.167,-856.916 1021.83,-856.916 1021.83,-856.916 1025.67,-856.916 1029.5,-860.75 1029.5,-864.583 1029.5,-864.583 1029.5,-872.25 1029.5,-872.25 1029.5,-876.083 1025.67,-879.916 1021.83,-879.916"/>
<text text-anchor="middle" x="985" y="-864.716" font-family="Arial" font-size="14.00" fill="#cfffac">util/async.js</text>
</g>
<!-- history/base.js&#45;&gt;util/async.js -->
<g id="edge23" class="edge"><title>history/base.js&#45;&gt;util/async.js</title>
<path fill="none" stroke="#757575" d="M854.154,-874.124C878.051,-873.074 906.347,-871.83 930.415,-870.772"/>
<polygon fill="#757575" stroke="#757575" points="930.61,-874.267 940.446,-870.331 930.302,-867.274 930.61,-874.267"/>
</g>
<!-- history/base.js&#45;&gt;util/dom.js -->
<g id="edge24" class="edge"><title>history/base.js&#45;&gt;util/dom.js</title>
<path fill="none" stroke="#757575" d="M814.972,-865.14C832.214,-850.826 864.218,-826.541 896,-814.416 900.433,-812.725 1164.2,-774.589 1275.89,-758.488"/>
<polygon fill="#757575" stroke="#757575" points="1276.49,-761.937 1285.89,-757.047 1275.49,-755.009 1276.49,-761.937"/>
</g>
<!-- util/resolve&#45;components.js -->
<g id="node19" class="node"><title>util/resolve&#45;components.js</title>
<path fill="none" stroke="#c6c5fe" d="M1066.33,-959.916C1066.33,-959.916 903.667,-959.916 903.667,-959.916 899.833,-959.916 896,-956.083 896,-952.25 896,-952.25 896,-944.583 896,-944.583 896,-940.75 899.833,-936.916 903.667,-936.916 903.667,-936.916 1066.33,-936.916 1066.33,-936.916 1070.17,-936.916 1074,-940.75 1074,-944.583 1074,-944.583 1074,-952.25 1074,-952.25 1074,-956.083 1070.17,-959.916 1066.33,-959.916"/>
<text text-anchor="middle" x="985" y="-944.716" font-family="Arial" font-size="14.00" fill="#c6c5fe">util/resolve&#45;components.js</text>
</g>
<!-- history/base.js&#45;&gt;util/resolve&#45;components.js -->
<g id="edge26" class="edge"><title>history/base.js&#45;&gt;util/resolve&#45;components.js</title>
<path fill="none" stroke="#757575" d="M822.459,-887.672C841.206,-897.683 869.926,-912.267 896,-922.416 907.134,-926.75 919.298,-930.776 930.932,-934.303"/>
<polygon fill="#757575" stroke="#757575" points="929.963,-937.666 940.545,-937.144 931.947,-930.953 929.963,-937.666"/>
</g>
<!-- history/base.js&#45;&gt;util/scroll.js -->
<g id="edge28" class="edge"><title>history/base.js&#45;&gt;util/scroll.js</title>
<path fill="none" stroke="#757575" d="M811.521,-864.96C827.826,-845.659 862.577,-805.882 896,-776.416 915.728,-759.024 940.024,-741.621 958.086,-729.362"/>
<polygon fill="#757575" stroke="#757575" points="960.051,-732.259 966.404,-723.78 956.15,-726.446 960.051,-732.259"/>
</g>
<!-- install.js&#45;&gt;components/link.js -->
<g id="edge55" class="edge"><title>install.js&#45;&gt;components/link.js</title>
<path fill="none" stroke="#757575" d="M1147.73,-999.846C1073.6,-1050.76 759.034,-1254.42 470,-1254.42 337,-1254.42 337,-1254.42 337,-1254.42 150.29,-1254.42 80.1432,-525.363 68.723,-389.928"/>
<polygon fill="#757575" stroke="#757575" points="72.2096,-389.621 67.8978,-379.943 65.2334,-390.197 72.2096,-389.621"/>
</g>
<!-- install.js&#45;&gt;components/view.js -->
<g id="edge56" class="edge"><title>install.js&#45;&gt;components/view.js</title>
<path fill="none" stroke="#757575" d="M1198.18,-988.012C1212.21,-987.835 1229.34,-987.62 1246.41,-987.405"/>
<polygon fill="#757575" stroke="#757575" points="1246.47,-990.905 1256.43,-987.279 1246.38,-983.905 1246.47,-990.905"/>
</g>
<!-- util/resolve&#45;components.js&#45;&gt;util/warn.js -->
<g id="edge71" class="edge"><title>util/resolve&#45;components.js&#45;&gt;util/warn.js</title>
<path fill="none" stroke="#757575" d="M1074.15,-947.612C1142.57,-947.056 1239.81,-946.416 1325,-946.416 1325,-946.416 1325,-946.416 1475,-946.416 1549.11,-946.416 1588.12,-975.33 1640,-922.416 1682.5,-879.07 1709.98,-433.627 1715.83,-329.914"/>
<polygon fill="#757575" stroke="#757575" points="1719.33,-329.909 1716.39,-319.73 1712.34,-329.52 1719.33,-329.909"/>
</g>
<!-- util/resolve&#45;components.js&#45;&gt;util/errors.js -->
<g id="edge70" class="edge"><title>util/resolve&#45;components.js&#45;&gt;util/errors.js</title>
<path fill="none" stroke="#757575" d="M999.089,-959.74C1029.69,-986.217 1106.13,-1052.35 1143.19,-1084.42"/>
<polygon fill="#757575" stroke="#757575" points="1141.04,-1087.18 1150.89,-1091.08 1145.62,-1081.89 1141.04,-1087.18"/>
</g>
<!-- util/resolve&#45;components.js&#45;&gt;install.js -->
<g id="edge69" class="edge"><title>util/resolve&#45;components.js&#45;&gt;install.js</title>
<path fill="none" stroke="#757575" d="M1036.53,-959.772C1063.57,-965.848 1096.48,-973.243 1122.08,-978.997"/>
<polygon fill="#757575" stroke="#757575" points="1121.34,-982.417 1131.86,-981.194 1122.87,-975.587 1121.34,-982.417"/>
</g>
<!-- util/scroll.js&#45;&gt;util/misc.js -->
<g id="edge75" class="edge"><title>util/scroll.js&#45;&gt;util/misc.js</title>
<path fill="none" stroke="#757575" d="M996.561,-723.93C1046.37,-778.233 1255.45,-1006.15 1256,-1006.42 1308.79,-1032.57 1377.65,-1034.3 1423.5,-1031.65"/>
<polygon fill="#757575" stroke="#757575" points="1423.74,-1035.14 1433.49,-1030.98 1423.28,-1028.16 1423.74,-1035.14"/>
</g>
<!-- util/scroll.js&#45;&gt;util/warn.js -->
<g id="edge77" class="edge"><title>util/scroll.js&#45;&gt;util/warn.js</title>
<path fill="none" stroke="#757575" d="M1027.72,-704.703C1168.27,-678.558 1617.06,-593.737 1640,-572.416 1710.71,-506.686 1717.76,-380.084 1717.6,-329.781"/>
<polygon fill="#757575" stroke="#757575" points="1721.09,-329.688 1717.46,-319.736 1714.09,-329.783 1721.09,-329.688"/>
</g>
<!-- util/scroll.js&#45;&gt;index.js -->
<g id="edge74" class="edge"><title>util/scroll.js&#45;&gt;index.js</title>
<path fill="none" stroke="#757575" d="M956.238,-723.734C870.074,-750.466 601.295,-806.406 406,-721.416 379.805,-710.017 358.697,-683.034 347.577,-663.703"/>
<polygon fill="#757575" stroke="#757575" points="350.577,-661.889 342.82,-654.673 344.384,-665.151 350.577,-661.889"/>
</g>
<!-- util/state&#45;key.js -->
<g id="node24" class="node"><title>util/state&#45;key.js</title>
<path fill="none" stroke="#c6c5fe" d="M1211.83,-723.916C1211.83,-723.916 1118.17,-723.916 1118.17,-723.916 1114.33,-723.916 1110.5,-720.083 1110.5,-716.25 1110.5,-716.25 1110.5,-708.583 1110.5,-708.583 1110.5,-704.75 1114.33,-700.916 1118.17,-700.916 1118.17,-700.916 1211.83,-700.916 1211.83,-700.916 1215.67,-700.916 1219.5,-704.75 1219.5,-708.583 1219.5,-708.583 1219.5,-716.25 1219.5,-716.25 1219.5,-720.083 1215.67,-723.916 1211.83,-723.916"/>
<text text-anchor="middle" x="1165" y="-708.716" font-family="Arial" font-size="14.00" fill="#c6c5fe">util/state&#45;key.js</text>
</g>
<!-- util/scroll.js&#45;&gt;util/state&#45;key.js -->
<g id="edge76" class="edge"><title>util/scroll.js&#45;&gt;util/state&#45;key.js</title>
<path fill="none" stroke="#757575" d="M1027.73,-712.416C1049.31,-712.416 1076.11,-712.416 1100.22,-712.416"/>
<polygon fill="#757575" stroke="#757575" points="1100.37,-715.917 1110.37,-712.416 1100.37,-708.917 1100.37,-715.917"/>
</g>
<!-- history/hash.js&#45;&gt;index.js -->
<g id="edge32" class="edge"><title>history/hash.js&#45;&gt;index.js</title>
<path fill="none" stroke="#757575" d="M421.037,-681.101C402.292,-674.477 381.408,-666.227 365.403,-659.015"/>
<polygon fill="#757575" stroke="#757575" points="366.672,-655.745 356.13,-654.683 363.709,-662.087 366.672,-655.745"/>
</g>
<!-- history/hash.js&#45;&gt;util/path.js -->
<g id="edge33" class="edge"><title>history/hash.js&#45;&gt;util/path.js</title>
<path fill="none" stroke="#757575" d="M483.345,-680.851C534.352,-636.645 717.22,-478.159 779.249,-424.401"/>
<polygon fill="#757575" stroke="#757575" points="781.586,-427.007 786.85,-417.813 777.001,-421.717 781.586,-427.007"/>
</g>
<!-- history/hash.js&#45;&gt;history/base.js -->
<g id="edge30" class="edge"><title>history/hash.js&#45;&gt;history/base.js</title>
<path fill="none" stroke="#757575" d="M490.643,-703.927C547.263,-735.496 705.148,-823.529 770.793,-860.131"/>
<polygon fill="#757575" stroke="#757575" points="769.348,-863.333 779.786,-865.146 772.757,-857.219 769.348,-863.333"/>
</g>
<!-- history/hash.js&#45;&gt;util/scroll.js -->
<g id="edge35" class="edge"><title>history/hash.js&#45;&gt;util/scroll.js</title>
<path fill="none" stroke="#757575" d="M522.114,-694.444C620.836,-698.286 834.02,-706.581 932.369,-710.407"/>
<polygon fill="#757575" stroke="#757575" points="932.24,-713.905 942.368,-710.797 932.512,-706.91 932.24,-713.905"/>
</g>
<!-- history/hash.js&#45;&gt;history/html5.js -->
<g id="edge31" class="edge"><title>history/hash.js&#45;&gt;history/html5.js</title>
<path fill="none" stroke="#757575" d="M503.593,-681.084C529.355,-672.393 565.103,-660.333 592.962,-650.935"/>
<polygon fill="#757575" stroke="#757575" points="594.101,-654.245 602.457,-647.732 591.863,-647.612 594.101,-654.245"/>
</g>
<!-- history/hash.js&#45;&gt;util/push&#45;state.js -->
<g id="edge34" class="edge"><title>history/hash.js&#45;&gt;util/push&#45;state.js</title>
<path fill="none" stroke="#757575" d="M522.171,-685.348C570.089,-678.645 643.006,-667.912 706,-656.416 716.807,-654.444 728.274,-652.163 739.345,-649.863"/>
<polygon fill="#757575" stroke="#757575" points="740.307,-653.238 749.372,-647.754 738.865,-646.388 740.307,-653.238"/>
</g>
<!-- history/html5.js&#45;&gt;util/route.js -->
<g id="edge40" class="edge"><title>history/html5.js&#45;&gt;util/route.js</title>
<path fill="none" stroke="#757575" d="M692.207,-625.265C708.228,-622.025 725.81,-618.524 742,-615.416 1032.14,-559.732 1108.69,-565.244 1396,-496.416 1406.49,-493.904 1417.66,-490.812 1428.15,-487.719"/>
<polygon fill="#757575" stroke="#757575" points="1429.39,-491.003 1437.96,-484.773 1427.37,-484.3 1429.39,-491.003"/>
</g>
<!-- history/html5.js&#45;&gt;index.js -->
<g id="edge37" class="edge"><title>history/html5.js&#45;&gt;index.js</title>
<path fill="none" stroke="#757575" d="M581.943,-643.04C523.965,-646.426 433.156,-648.402 380.532,-647.293"/>
<polygon fill="#757575" stroke="#757575" points="380.312,-643.786 370.223,-647.02 380.126,-650.784 380.312,-643.786"/>
</g>
<!-- history/html5.js&#45;&gt;util/path.js -->
<g id="edge38" class="edge"><title>history/html5.js&#45;&gt;util/path.js</title>
<path fill="none" stroke="#757575" d="M646.034,-625.011C671.891,-588.3 753.179,-472.891 786.025,-426.257"/>
<polygon fill="#757575" stroke="#757575" points="789.021,-428.082 791.918,-417.891 783.298,-424.051 789.021,-428.082"/>
</g>
<!-- history/html5.js&#45;&gt;history/base.js -->
<g id="edge36" class="edge"><title>history/html5.js&#45;&gt;history/base.js</title>
<path fill="none" stroke="#757575" d="M645.596,-647.67C671.101,-685.455 753.9,-808.12 786.569,-856.518"/>
<polygon fill="#757575" stroke="#757575" points="783.736,-858.577 792.232,-864.908 789.538,-854.661 783.736,-858.577"/>
</g>
<!-- history/html5.js&#45;&gt;util/scroll.js -->
<g id="edge41" class="edge"><title>history/html5.js&#45;&gt;util/scroll.js</title>
<path fill="none" stroke="#757575" d="M689.426,-647.712C754.738,-662.058 866.795,-686.672 932.257,-701.051"/>
<polygon fill="#757575" stroke="#757575" points="931.831,-704.541 942.349,-703.268 933.333,-697.704 931.831,-704.541"/>
</g>
<!-- history/html5.js&#45;&gt;util/push&#45;state.js -->
<g id="edge39" class="edge"><title>history/html5.js&#45;&gt;util/push&#45;state.js</title>
<path fill="none" stroke="#757575" d="M692.394,-636.416C704.942,-636.416 718.448,-636.416 731.509,-636.416"/>
<polygon fill="#757575" stroke="#757575" points="731.862,-639.917 741.862,-636.416 731.862,-632.917 731.862,-639.917"/>
</g>
<!-- util/push&#45;state.js&#45;&gt;util/misc.js -->
<g id="edge65" class="edge"><title>util/push&#45;state.js&#45;&gt;util/misc.js</title>
<path fill="none" stroke="#757575" d="M855.769,-625.106C974.698,-603.613 1260.24,-572.097 1396,-730.416 1466.36,-812.471 1473.51,-951.19 1473.49,-1004.58"/>
<polygon fill="#757575" stroke="#757575" points="1469.99,-1004.86 1473.39,-1014.89 1476.98,-1004.93 1469.99,-1004.86"/>
</g>
<!-- util/push&#45;state.js&#45;&gt;util/dom.js -->
<g id="edge64" class="edge"><title>util/push&#45;state.js&#45;&gt;util/dom.js</title>
<path fill="none" stroke="#757575" d="M860.203,-634.722C943.274,-634.342 1099.15,-641.278 1220,-691.416 1248.55,-703.261 1278.99,-721.325 1299.7,-734.538"/>
<polygon fill="#757575" stroke="#757575" points="1297.92,-737.556 1308.22,-740.049 1301.72,-731.678 1297.92,-737.556"/>
</g>
<!-- util/push&#45;state.js&#45;&gt;util/scroll.js -->
<g id="edge66" class="edge"><title>util/push&#45;state.js&#45;&gt;util/scroll.js</title>
<path fill="none" stroke="#757575" d="M829.604,-647.67C839.378,-651.946 850.341,-657.081 860,-662.416 876.832,-671.715 878.583,-678.267 896,-686.416 907.499,-691.797 920.368,-696.347 932.638,-700.063"/>
<polygon fill="#757575" stroke="#757575" points="931.733,-703.445 942.312,-702.864 933.68,-696.721 931.733,-703.445"/>
</g>
<!-- util/push&#45;state.js&#45;&gt;util/state&#45;key.js -->
<g id="edge67" class="edge"><title>util/push&#45;state.js&#45;&gt;util/state&#45;key.js</title>
<path fill="none" stroke="#757575" d="M860.205,-647.666C915.351,-658.447 1000.45,-675.402 1074,-691.416 1084.68,-693.742 1096.05,-696.318 1106.99,-698.845"/>
<polygon fill="#757575" stroke="#757575" points="1106.35,-702.289 1116.88,-701.144 1107.94,-695.471 1106.35,-702.289"/>
</g>
<!-- util/state&#45;key.js&#45;&gt;util/dom.js -->
<g id="edge78" class="edge"><title>util/state&#45;key.js&#45;&gt;util/dom.js</title>
<path fill="none" stroke="#757575" d="M1211.99,-723.697C1232.09,-728.627 1255.68,-734.415 1276.1,-739.423"/>
<polygon fill="#757575" stroke="#757575" points="1275.3,-742.829 1285.84,-741.812 1276.96,-736.03 1275.3,-742.829"/>
</g>
</g>
</svg>
