<?xml version="1.0" encoding="UTF-8" standalone="no"?>
<!DOCTYPE svg PUBLIC "-//W3C//DTD SVG 1.1//EN"
 "http://www.w3.org/Graphics/SVG/1.1/DTD/svg11.dtd">
<!-- Generated by graphviz version 2.40.1 (20161225.0304)
 -->
<!-- Title: %0 Pages: 1 -->
<svg width="92pt" height="54pt"
 viewBox="0.00 0.00 91.94 54.40" xmlns="http://www.w3.org/2000/svg" xmlns:xlink="http://www.w3.org/1999/xlink">
<g id="graph0" class="graph" transform="scale(1 1) rotate(0) translate(4 50.4)">
<title>%0</title>
<polygon fill="#ffffff" stroke="transparent" points="-4,4 -4,-50.4 87.9383,-50.4 87.9383,4 -4,4"/>
<text text-anchor="middle" x="41.9692" y="-28" font-family="Roboto Condensed, sans-serif" font-size="16.00" fill="#000000">vue&#45;router</text>
<!-- vue&#45;router@3.5.3 -->
<g id="node1" class="node">
<title>vue&#45;router@3.5.3</title>
<path fill="none" stroke="#000000" d="M77.4401,-19.3011C77.4401,-19.3011 6.4982,-19.3011 6.4982,-19.3011 3.2645,-19.3011 .0308,-16.0674 .0308,-12.8337 .0308,-12.8337 .0308,-6.3663 .0308,-6.3663 .0308,-3.1326 3.2645,.1011 6.4982,.1011 6.4982,.1011 77.4401,.1011 77.4401,.1011 80.6738,.1011 83.9075,-3.1326 83.9075,-6.3663 83.9075,-6.3663 83.9075,-12.8337 83.9075,-12.8337 83.9075,-16.0674 80.6738,-19.3011 77.4401,-19.3011"/>
<text text-anchor="middle" x="41.9692" y="-6.3" font-family="Roboto Condensed, sans-serif" font-size="11.00" fill="#000000">vue&#45;router@3.5.3</text>
</g>
</g>
</svg>
